<svg xmlns="http://www.w3.org/2000/svg" width="400" height="400" viewBox="0 0 400 400" fill="none">
  <rect x="50" y="50" width="300" height="300" rx="8" fill="#F3F4F6" stroke="#4B5563" stroke-width="4"/>
  <rect x="60" y="60" width="280" height="280" rx="4" fill="#E5E7EB"/>
  <rect x="75" y="75" width="250" height="250" fill="#FFFFFF"/>
  
  <!-- Stylized crossing -->
  <rect x="75" y="160" width="250" height="80" fill="#D1D5DB"/>
  <path d="M90 240 L100 160" stroke="#4B5563" stroke-width="2"/>
  <path d="M130 240 L140 160" stroke="#4B5563" stroke-width="2"/>
  <path d="M170 240 L180 160" stroke="#4B5563" stroke-width="2"/>
  <path d="M210 240 L220 160" stroke="#4B5563" stroke-width="2"/>
  
  <!-- Abstract figures crossing -->
  <rect x="90" y="180" width="15" height="40" fill="#1F2937"/>
  <rect x="130" y="180" width="15" height="40" fill="#1F2937"/>
  <rect x="170" y="180" width="15" height="40" fill="#1F2937"/>
  <rect x="210" y="180" width="15" height="40" fill="#1F2937"/>
  
  <!-- Album title -->
  <rect x="75" y="280" width="250" height="45" fill="#F3F4F6"/>
  <text x="200" y="310" font-family="Arial" font-size="16" font-weight="bold" fill="#1F2937" text-anchor="middle">ABBEY ROAD</text>
  
  <!-- Record label -->
  <circle cx="200" cy="150" r="35" fill="#000000"/>
  <circle cx="200" cy="150" r="15" fill="#F3F4F6"/>
  <circle cx="200" cy="150" r="3" fill="#000000"/>
</svg> 