<svg xmlns="http://www.w3.org/2000/svg" width="400" height="400" viewBox="0 0 400 400" fill="none">
  <rect x="50" y="50" width="300" height="300" rx="15" fill="#FEF3C7" stroke="#F59E0B" stroke-width="8"/>
  <rect x="70" y="70" width="260" height="260" rx="10" fill="#FDBA74" stroke="#F97316" stroke-width="4"/>
  <rect x="90" y="90" width="220" height="140" rx="5" fill="#FEF9C3"/>
  <path d="M220 130C220 130 240 150 260 190C260 190 245 170 220 160" fill="#FB923C"/>
  <path d="M180 130C180 130 160 150 140 190C140 190 155 170 180 160" fill="#FB923C"/>
  <path d="M160 150C160 150 180 175 200 220C220 175 240 150 240 150L220 270L180 270L160 150Z" fill="#EA580C"/>
  <path d="M170 240L230 240L220 260L180 260L170 240Z" fill="#FB923C"/>
  <circle cx="160" cy="130" r="15" fill="#FBBF24"/>
  <circle cx="240" cy="130" r="15" fill="#FBBF24"/>
  <rect x="90" y="240" width="220" height="20" fill="#FB923C"/>
  <rect x="90" y="270" width="220" height="40" fill="#FEF9C3"/>
  <text x="200" y="298" font-family="Arial" font-size="22" fill="#B45309" text-anchor="middle" dominant-baseline="middle">CHARIZARD</text>
</svg> 